<svg width="49" height="24" viewBox="0 0 49 24" fill="none" xmlns="http://www.w3.org/2000/svg">
<path d="M44.5714 1.5291e-06L4.28571 0C3.14907 0 2.05898 0.451529 1.25526 1.25526C0.451529 2.05898 0 3.14907 0 4.28571V19.7143C0 20.8509 0.451529 21.941 1.25526 22.7447C2.05898 23.5485 3.14907 24 4.28571 24H42C42.2273 24 42.4454 23.9097 42.6061 23.7489C42.7668 23.5882 42.8571 23.3702 42.8571 23.1429C42.8571 22.9155 42.7668 22.6975 42.6061 22.5368C42.4454 22.376 42.2273 22.2857 42 22.2857H4.28571C3.60373 22.2857 2.94968 22.0148 2.46744 21.5326C1.9852 21.0503 1.71429 20.3963 1.71429 19.7143V4.28571C1.71429 3.60373 1.9852 2.94968 2.46744 2.46744C2.94968 1.9852 3.60373 1.71429 4.28571 1.71429L44.5714 1.71429C45.2534 1.71429 45.9075 1.9852 46.3897 2.46744C46.8719 2.94968 47.1429 3.60373 47.1429 4.28571V19.7143C47.1429 20.3963 46.8719 21.0503 46.3897 21.5326C45.9075 22.0148 45.2534 22.2857 44.5714 22.2857H45.4286C45.2012 22.2857 44.9832 22.376 44.8225 22.5368C44.6617 22.6975 44.5714 22.9155 44.5714 23.1429C44.5714 23.3702 44.6617 23.5882 44.8225 23.7489C44.9832 23.9097 45.2012 24 45.4286 24H44.5714C45.7081 24 46.7982 23.5485 47.6019 22.7447C48.4056 21.941 48.8571 20.8509 48.8571 19.7143V4.28571C48.8571 3.14907 48.4056 2.05899 47.6019 1.25526C46.7982 0.451532 45.7081 1.5291e-06 44.5714 1.5291e-06Z" fill="black"/>
<path d="M8.73492 15L7.07492 12.15H5.97492V15H5.06492V8.03H7.31492C7.84159 8.03 8.28492 8.12 8.64492 8.3C9.01159 8.48 9.28492 8.72333 9.46492 9.03C9.64492 9.33667 9.73492 9.68667 9.73492 10.08C9.73492 10.56 9.59492 10.9833 9.31492 11.35C9.04159 11.7167 8.62826 11.96 8.07492 12.08L9.82492 15H8.73492ZM5.97492 11.42H7.31492C7.80826 11.42 8.17826 11.3 8.42492 11.06C8.67159 10.8133 8.79492 10.4867 8.79492 10.08C8.79492 9.66667 8.67159 9.34667 8.42492 9.12C8.18492 8.89333 7.81492 8.78 7.31492 8.78H5.97492V11.42ZM16.1489 12.05C16.1489 12.2233 16.1389 12.4067 16.1189 12.6H11.7389C11.7722 13.14 11.9556 13.5633 12.2889 13.87C12.6289 14.17 13.0389 14.32 13.5189 14.32C13.9122 14.32 14.2389 14.23 14.4989 14.05C14.7656 13.8633 14.9522 13.6167 15.0589 13.31H16.0389C15.8922 13.8367 15.5989 14.2667 15.1589 14.6C14.7189 14.9267 14.1722 15.09 13.5189 15.09C12.9989 15.09 12.5322 14.9733 12.1189 14.74C11.7122 14.5067 11.3922 14.1767 11.1589 13.75C10.9256 13.3167 10.8089 12.8167 10.8089 12.25C10.8089 11.6833 10.9222 11.1867 11.1489 10.76C11.3756 10.3333 11.6922 10.0067 12.0989 9.78C12.5122 9.54667 12.9856 9.43 13.5189 9.43C14.0389 9.43 14.4989 9.54333 14.8989 9.77C15.2989 9.99667 15.6056 10.31 15.8189 10.71C16.0389 11.1033 16.1489 11.55 16.1489 12.05ZM15.2089 11.86C15.2089 11.5133 15.1322 11.2167 14.9789 10.97C14.8256 10.7167 14.6156 10.5267 14.3489 10.4C14.0889 10.2667 13.7989 10.2 13.4789 10.2C13.0189 10.2 12.6256 10.3467 12.2989 10.64C11.9789 10.9333 11.7956 11.34 11.7489 11.86H15.2089ZM19.2901 15.09C18.8701 15.09 18.4934 15.02 18.1601 14.88C17.8267 14.7333 17.5634 14.5333 17.3701 14.28C17.1767 14.02 17.0701 13.7233 17.0501 13.39H17.9901C18.0167 13.6633 18.1434 13.8867 18.3701 14.06C18.6034 14.2333 18.9067 14.32 19.2801 14.32C19.6267 14.32 19.9001 14.2433 20.1001 14.09C20.3001 13.9367 20.4001 13.7433 20.4001 13.51C20.4001 13.27 20.2934 13.0933 20.0801 12.98C19.8667 12.86 19.5367 12.7433 19.0901 12.63C18.6834 12.5233 18.3501 12.4167 18.0901 12.31C17.8367 12.1967 17.6167 12.0333 17.4301 11.82C17.2501 11.6 17.1601 11.3133 17.1601 10.96C17.1601 10.68 17.2434 10.4233 17.4101 10.19C17.5767 9.95667 17.8134 9.77333 18.1201 9.64C18.4267 9.5 18.7767 9.43 19.1701 9.43C19.7767 9.43 20.2667 9.58333 20.6401 9.89C21.0134 10.1967 21.2134 10.6167 21.2401 11.15H20.3301C20.3101 10.8633 20.1934 10.6333 19.9801 10.46C19.7734 10.2867 19.4934 10.2 19.1401 10.2C18.8134 10.2 18.5534 10.27 18.3601 10.41C18.1667 10.55 18.0701 10.7333 18.0701 10.96C18.0701 11.14 18.1267 11.29 18.2401 11.41C18.3601 11.5233 18.5067 11.6167 18.6801 11.69C18.8601 11.7567 19.1067 11.8333 19.4201 11.92C19.8134 12.0267 20.1334 12.1333 20.3801 12.24C20.6267 12.34 20.8367 12.4933 21.0101 12.7C21.1901 12.9067 21.2834 13.1767 21.2901 13.51C21.2901 13.81 21.2067 14.08 21.0401 14.32C20.8734 14.56 20.6367 14.75 20.3301 14.89C20.0301 15.0233 19.6834 15.09 19.2901 15.09ZM27.4347 9.52V15H26.5247V14.19C26.3514 14.47 26.108 14.69 25.7947 14.85C25.488 15.0033 25.148 15.08 24.7747 15.08C24.348 15.08 23.9647 14.9933 23.6247 14.82C23.2847 14.64 23.0147 14.3733 22.8147 14.02C22.6214 13.6667 22.5247 13.2367 22.5247 12.73V9.52H23.4247V12.61C23.4247 13.15 23.5614 13.5667 23.8347 13.86C24.108 14.1467 24.4814 14.29 24.9547 14.29C25.4414 14.29 25.8247 14.14 26.1047 13.84C26.3847 13.54 26.5247 13.1033 26.5247 12.53V9.52H27.4347ZM35.5612 9.42C35.9878 9.42 36.3678 9.51 36.7012 9.69C37.0345 9.86333 37.2978 10.1267 37.4912 10.48C37.6845 10.8333 37.7812 11.2633 37.7812 11.77V15H36.8812V11.9C36.8812 11.3533 36.7445 10.9367 36.4712 10.65C36.2045 10.3567 35.8412 10.21 35.3812 10.21C34.9078 10.21 34.5312 10.3633 34.2512 10.67C33.9712 10.97 33.8312 11.4067 33.8312 11.98V15H32.9312V11.9C32.9312 11.3533 32.7945 10.9367 32.5212 10.65C32.2545 10.3567 31.8912 10.21 31.4312 10.21C30.9578 10.21 30.5812 10.3633 30.3012 10.67C30.0212 10.97 29.8812 11.4067 29.8812 11.98V15H28.9712V9.52H29.8812V10.31C30.0612 10.0233 30.3012 9.80333 30.6012 9.65C30.9078 9.49667 31.2445 9.42 31.6112 9.42C32.0712 9.42 32.4778 9.52333 32.8312 9.73C33.1845 9.93667 33.4478 10.24 33.6212 10.64C33.7745 10.2533 34.0278 9.95333 34.3812 9.74C34.7345 9.52667 35.1278 9.42 35.5612 9.42ZM44.2739 12.05C44.2739 12.2233 44.2639 12.4067 44.2439 12.6H39.8639C39.8972 13.14 40.0806 13.5633 40.4139 13.87C40.7539 14.17 41.1639 14.32 41.6439 14.32C42.0372 14.32 42.3639 14.23 42.6239 14.05C42.8906 13.8633 43.0772 13.6167 43.1839 13.31H44.1639C44.0172 13.8367 43.7239 14.2667 43.2839 14.6C42.8439 14.9267 42.2972 15.09 41.6439 15.09C41.1239 15.09 40.6572 14.9733 40.2439 14.74C39.8372 14.5067 39.5172 14.1767 39.2839 13.75C39.0506 13.3167 38.9339 12.8167 38.9339 12.25C38.9339 11.6833 39.0472 11.1867 39.2739 10.76C39.5006 10.3333 39.8172 10.0067 40.2239 9.78C40.6372 9.54667 41.1106 9.43 41.6439 9.43C42.1639 9.43 42.6239 9.54333 43.0239 9.77C43.4239 9.99667 43.7306 10.31 43.9439 10.71C44.1639 11.1033 44.2739 11.55 44.2739 12.05ZM43.3339 11.86C43.3339 11.5133 43.2572 11.2167 43.1039 10.97C42.9506 10.7167 42.7406 10.5267 42.4739 10.4C42.2139 10.2667 41.9239 10.2 41.6039 10.2C41.1439 10.2 40.7506 10.3467 40.4239 10.64C40.1039 10.9333 39.9206 11.34 39.8739 11.86H43.3339Z" fill="black"/>
</svg>
