<svg width="41" height="48" viewBox="0 0 41 48" fill="none" xmlns="http://www.w3.org/2000/svg">
<path d="M2.96206 15.5255C1.32625 15.5247 0.000403605 16.8538 0 18.4884L0.00201769 30.8936C0.00242129 32.5339 1.32907 33.8577 2.96529 33.8573C4.60231 33.8573 5.92856 32.5335 5.92694 30.894V18.4868C5.92613 16.8526 4.59868 15.5247 2.96206 15.5255ZM26.8527 4.38522L28.9203 0.609494C29.0305 0.412131 28.9583 0.161089 28.7585 0.0492904C28.5567 -0.057665 28.3077 0.014984 28.2007 0.213558L26.112 4.02884C24.3547 3.24665 22.388 2.80833 20.307 2.81035C18.2316 2.80833 16.2657 3.24544 14.5157 4.02319L12.4246 0.217594C12.316 0.0170019 12.0658 -0.0556469 11.8684 0.0537301C11.6674 0.1623 11.5936 0.413746 11.7054 0.610705L13.7738 4.38401C9.70953 6.47993 6.9634 10.4716 6.96582 15.0545L33.6514 15.0513C33.6522 10.47 30.9109 6.48639 26.8527 4.38522ZM14.2376 10.2201C13.6237 10.2189 13.1224 9.71927 13.1224 9.10175C13.1224 8.48706 13.6221 7.98175 14.2388 7.98215C14.8575 7.98175 15.358 8.48706 15.3588 9.10175C15.3588 9.71846 14.8571 10.2197 14.2376 10.2201ZM26.3885 10.2181C25.7718 10.2189 25.2697 9.71886 25.2697 9.09973C25.2721 8.48625 25.771 7.98094 26.3889 7.97852C27.0028 7.98054 27.5061 8.48625 27.5057 9.10014C27.5069 9.71765 27.0052 10.2185 26.3885 10.2181ZM7.07479 16.0853L7.07923 35.3111C7.07802 37.0599 8.49266 38.4717 10.2403 38.4717L12.3927 38.4725L12.3951 45.0367C12.3947 46.6713 13.7234 48 15.3556 48C16.9926 48 18.3188 46.6701 18.3192 45.0347L18.3176 38.4721L22.3169 38.4709L22.3186 45.0347C22.3186 46.6681 23.6476 47.9996 25.2802 47.9964C26.9172 47.9976 28.2443 46.6677 28.2439 45.0323L28.2419 38.4701L30.402 38.4685C32.1455 38.4693 33.5638 37.0558 33.5646 35.3066L33.561 16.0809L7.07479 16.0853ZM40.6281 18.484C40.6277 16.8473 39.3019 15.5211 37.6652 15.5219C36.0294 15.5203 34.704 16.8485 34.704 18.4852L34.7064 30.8912C34.706 32.529 36.0314 33.8528 37.6685 33.8532C39.3047 33.8528 40.6297 32.529 40.6301 30.8896L40.6281 18.484Z" fill="#A4C439"/>
</svg>
