<svg width="43" height="48" viewBox="0 0 43 48" fill="none" xmlns="http://www.w3.org/2000/svg">
<path d="M0 0L3.84687 43.1871L21.1082 48L38.4178 43.1695L42.2678 0H0ZM34.276 9.89436L32.9955 24.2814L32.9993 24.3591L32.9939 24.5377V24.5362L32.0842 34.5958L31.9839 35.4895L21.1339 38.4905L21.1255 38.4982L10.2942 35.4804L9.56075 27.1634H14.8721L15.249 31.3925L21.1354 32.9878L21.1339 32.9909V32.9901L27.0421 31.3722L27.6665 24.4853H15.3156L15.2096 23.3211L14.9682 20.5937L14.8415 19.1291H28.1359L28.6195 13.773H8.37091L8.26494 12.6096L8.02391 9.88135L7.89689 8.41682H34.4026L34.276 9.89436Z" fill="#1572B6"/>
</svg>
