<svg width="49" height="48" viewBox="0 0 49 48" fill="none" xmlns="http://www.w3.org/2000/svg">
<g clip-path="url(#clip0_262_294)">
<path d="M47.1065 21.8621L26.1485 0.905176C24.9424 -0.301725 22.9848 -0.301725 21.7768 0.905176L17.4256 5.25747L22.9461 10.7779C24.2294 10.3448 25.7002 10.6353 26.7227 11.6578C27.7505 12.6867 28.0391 14.1701 27.5946 15.4576L32.915 20.7787C34.2021 20.335 35.6877 20.6217 36.7152 21.6514C38.1525 23.0876 38.1525 25.4158 36.7152 26.8528C35.2778 28.2901 32.9503 28.2901 31.5122 26.8528C30.4316 25.7714 30.1643 24.1838 30.7118 22.8522L25.7504 17.8904L25.7496 30.9484C26.1002 31.1214 26.4306 31.3526 26.7227 31.6435C28.1596 33.0797 28.1596 35.4072 26.7227 36.8464C25.2857 38.2826 22.9567 38.2826 21.5213 36.8464C20.0847 35.4076 19.9668 33.0801 21.403 31.6435C21.7582 31.2887 22.1084 31.0207 22.4886 30.8412V17.6622C22.1084 17.4828 21.7586 17.2166 21.4026 16.8595C20.3148 15.772 20.1113 14.175 20.6695 12.8381L15.2575 7.3956L0.901668 21.7651C-0.305614 22.9731 -0.298009 24.9307 0.909273 26.1379L21.8707 47.0948C23.0772 48.3017 25.0363 48.3017 26.2447 47.0948L47.105 26.2353C48.3123 25.0276 48.3134 23.069 47.1065 21.8621Z" fill="#F34F29"/>
</g>
<defs>
<clipPath id="clip0_262_294">
<rect width="48.0111" height="48" fill="white"/>
</clipPath>
</defs>
</svg>
