<svg width="24" height="24" viewBox="0 0 24 24" fill="none" xmlns="http://www.w3.org/2000/svg">
<path d="M11.9372 0.239789C9.04875 0.240671 6.25848 1.28855 4.08346 3.18927C1.90844 5.08998 0.496126 7.71467 0.108203 10.577C-0.27972 13.4393 0.383051 16.3453 1.97371 18.7563C3.56437 21.1674 5.97507 22.9201 8.75914 23.6898C8.87859 23.7348 9.00609 23.7543 9.13352 23.7472C9.26095 23.7402 9.3855 23.7066 9.49924 23.6487C9.61298 23.5908 9.71341 23.5099 9.79412 23.411C9.87484 23.3122 9.93406 23.1976 9.96802 23.0745C10.002 22.9515 10.0099 22.8228 9.99136 22.6965C9.97279 22.5702 9.92812 22.4492 9.86018 22.3412C9.79224 22.2331 9.70254 22.1404 9.59679 22.069C9.49103 21.9976 9.37155 21.9489 9.24596 21.9262C6.93418 21.2932 4.92273 19.8589 3.57091 17.8796C2.21909 15.9003 1.61494 13.5049 1.86639 11.1212C2.11783 8.73758 3.20849 6.52093 4.94355 4.86725C6.6786 3.21357 8.94504 2.23057 11.338 2.09383C13.731 1.95708 16.0947 2.67551 18.0068 4.12078C19.9189 5.56605 21.255 7.64402 21.7764 9.98353C22.2977 12.323 21.9704 14.7717 20.8528 16.8921C19.7353 19.0125 17.9003 20.6666 15.6757 21.5588C15.7336 20.3518 15.641 19.1423 15.4001 17.9582C16.7057 17.6686 17.8699 16.9336 18.6928 15.8794C19.5157 14.8253 19.9461 13.5175 19.9101 12.1807C19.9764 10.9232 19.6384 9.67748 18.9456 8.62595C19.074 7.58262 18.948 6.52372 18.5782 5.5397C18.5093 5.33451 18.3701 5.16026 18.1853 5.04766C18.0004 4.93507 17.7818 4.89137 17.5678 4.92428C16.46 5.07558 15.4013 5.47769 14.4724 6.1C13.6449 5.87998 12.7934 5.76275 11.9372 5.75096C11.0065 5.77548 10.0818 5.90802 9.18166 6.14592C8.2888 5.46289 7.201 5.08313 6.07704 5.06206C5.879 5.05037 5.6825 5.1031 5.51693 5.21238C5.35136 5.32166 5.22562 5.4816 5.15851 5.66829C4.82164 6.60592 4.70535 7.60855 4.81865 8.59839C4.15959 9.67498 3.82474 10.9187 3.8542 12.1807C3.88824 13.5108 4.35503 14.7936 5.1838 15.8345C6.01258 16.8755 7.15815 17.6178 8.44684 17.949C8.38785 18.1882 8.34186 18.4305 8.30906 18.6746C7.39053 18.7298 6.85779 18.1695 6.17808 17.3152C5.77796 16.6429 5.14324 16.1423 4.39613 15.9099C4.16412 15.8685 3.92509 15.9179 3.72848 16.0478C3.53187 16.1778 3.39273 16.3783 3.33982 16.608C3.28895 16.8378 3.32825 17.0784 3.4496 17.28C3.57095 17.4817 3.7651 17.6291 3.99198 17.6918C4.13894 17.6918 4.49717 18.1695 4.69925 18.4358C5.06525 19.0316 5.56934 19.5304 6.1689 19.8902C6.76846 20.2499 7.44583 20.4599 8.14373 20.5025C8.54742 20.502 8.94916 20.4464 9.33781 20.3372C9.43297 20.309 9.52293 20.2656 9.60419 20.2086C9.67125 20.1556 9.72739 20.0901 9.76952 20.0157C9.79874 19.9927 9.82362 19.9647 9.843 19.933C9.86686 19.8831 9.88533 19.8307 9.89812 19.7769C9.92067 19.717 9.93909 19.6556 9.95323 19.5932C9.95017 18.9828 10.0952 18.3808 10.3757 17.8388C10.4899 17.7053 10.5634 17.542 10.5875 17.3681C10.6117 17.1942 10.5855 17.017 10.512 16.8575C10.4386 16.698 10.3209 16.5629 10.173 16.4682C10.0252 16.3735 9.85326 16.3232 9.67767 16.3232C8.61311 16.2631 7.61062 15.8028 6.87129 15.0345C6.13195 14.2662 5.71042 13.2467 5.69126 12.1807C5.64577 11.1991 5.92678 10.23 6.49038 9.42507C6.58178 9.32256 6.64903 9.20086 6.68718 9.06892C6.72534 8.93698 6.73341 8.79816 6.71082 8.66269C6.60512 8.1012 6.60512 7.52491 6.71082 6.96341C7.31189 7.0907 7.86544 7.38339 8.30906 7.80846C8.4288 7.92337 8.57743 8.00369 8.73916 8.04088C8.90089 8.07808 9.06968 8.07077 9.22759 8.01972C10.1103 7.76794 11.02 7.623 11.9372 7.58801C12.7628 7.60865 13.5817 7.74152 14.3713 7.98298C14.5253 8.04 14.6916 8.05474 14.8532 8.02567C15.0147 7.99659 15.1655 7.92476 15.2899 7.81765C15.825 7.37671 16.4531 7.06269 17.1269 6.89912C17.2647 7.4758 17.2647 8.07682 17.1269 8.65351C17.091 8.81894 17.0992 8.99091 17.1508 9.15215C17.2024 9.31338 17.2956 9.45819 17.4209 9.57203C17.9601 10.3279 18.1931 11.2599 18.073 12.1807C18.0946 12.7205 18.005 13.2591 17.8097 13.7628C17.6144 14.2666 17.3176 14.7248 16.9377 15.109C16.5578 15.4932 16.103 15.7952 15.6014 15.9962C15.0999 16.1971 14.5624 16.2928 14.0223 16.2773C13.8346 16.2767 13.6513 16.3336 13.4969 16.4403C13.3425 16.5471 13.2246 16.6985 13.1589 16.8743C13.0922 17.0502 13.0812 17.2422 13.1272 17.4246C13.1732 17.6069 13.274 17.7707 13.4161 17.8939C13.958 18.3623 13.8753 21.568 13.8478 22.8172C13.8442 22.9598 13.8739 23.1013 13.9345 23.2304C13.995 23.3596 14.0849 23.4728 14.1968 23.5612C14.3596 23.6876 14.5602 23.7555 14.7663 23.7541C14.8426 23.7631 14.9197 23.7631 14.9959 23.7541C17.8273 23.0357 20.2972 21.3043 21.938 18.8876C23.5789 16.4708 24.277 13.5365 23.9002 10.6398C23.5234 7.74304 22.0979 5.08492 19.8933 3.16842C17.6888 1.25191 14.8582 0.209978 11.9372 0.239789Z" fill="black"/>
</svg>
