<svg width="43" height="48" viewBox="0 0 43 48" fill="none" xmlns="http://www.w3.org/2000/svg">
<g clip-path="url(#clip0_265_304)">
<path d="M3.852 43.202L0 0H42.324L38.468 43.194L21.136 48L3.852 43.202Z" fill="#E44D26"/>
<path d="M21.162 44.328L35.168 40.446L38.462 3.532H21.162V44.328Z" fill="#F16529"/>
<path d="M21.162 19.556H14.15L13.666 14.13H21.162V8.832H7.876L9.304 24.854H21.162V19.556ZM21.162 33.316L21.138 33.322L15.238 31.728L14.86 27.502H9.542L10.284 35.822L21.138 38.834L21.162 38.828V33.316Z" fill="#EBEBEB"/>
<path d="M21.144 19.556V24.854H27.668L27.052 31.726L21.142 33.32V38.832L32.004 35.822L33.33 20.976L33.46 19.554L21.144 19.556ZM21.144 8.832V14.13H33.942L34.048 12.938L34.29 10.252L34.416 8.83L21.144 8.832Z" fill="white"/>
</g>
<defs>
<clipPath id="clip0_265_304">
<rect width="42.324" height="48" fill="white"/>
</clipPath>
</defs>
</svg>
