<svg width="35" height="48" viewBox="0 0 35 48" fill="none" xmlns="http://www.w3.org/2000/svg">
<path d="M27.6174 35.1686C27.5774 35.2806 27.4394 35.4046 27.4394 35.4046C39.3316 32.2425 34.9595 24.2584 29.2734 26.2804C28.7734 26.4604 28.5114 26.8744 28.5114 26.8744C28.5114 26.8744 28.8274 26.7464 29.5294 26.5984C32.4055 25.9904 36.5215 30.4885 27.6174 35.1686ZM2.37898 44.6487C21.3233 47.7548 36.9096 43.2487 31.9935 41.0087C31.9935 41.0087 33.3355 42.1267 30.5174 42.9907C25.1534 44.6347 8.19708 45.1287 3.487 43.0567C1.79497 42.3107 4.97102 41.2767 5.96704 41.0607C7.00706 40.8327 7.60307 40.8747 7.60307 40.8747C5.72304 39.5326 -4.56713 43.5087 2.37898 44.6487Z" fill="#4E7D9D"/>
<path d="M35.0015 43.4527C35.0015 43.4527 34.4035 45.0027 27.9374 46.2348C20.6453 47.6228 11.6451 47.4608 6.31105 46.5708C6.31105 46.5708 7.40506 47.4848 13.0192 47.8488C21.5673 48.4028 34.6915 47.5428 35.0015 43.4527ZM23.8913 33.0985C18.3992 34.1686 15.2272 34.1306 11.2091 33.7126C8.10508 33.3866 10.1371 31.8645 10.1371 31.8645C2.09898 34.5606 14.6112 37.6226 25.8414 34.3006C24.6493 33.8766 23.8913 33.0985 23.8913 33.0985Z" fill="#4E7D9D"/>
<path d="M11.9871 15.2543C9.7731 18.6163 13.0752 22.2264 17.5712 26.3324C15.8172 22.3244 9.86911 18.8143 17.5732 12.6602C27.1814 4.98808 22.2493 0 22.2493 0C24.2413 7.92413 15.2372 10.3162 11.9871 15.2543Z" fill="#F2941B"/>
<path d="M11.2751 37.1206C3.97901 39.1826 15.7132 43.4447 25.0054 39.4186C23.4833 38.8186 22.3933 38.1266 22.3933 38.1266C18.2512 38.9226 16.3292 38.9846 12.5672 38.5486C9.4611 38.1886 11.2751 37.1206 11.2751 37.1206ZM25.4854 29.3405C26.3974 28.7105 27.6574 28.1665 27.6574 28.1665C27.6574 28.1665 24.0753 28.8165 20.5033 29.1205C16.1352 29.4905 11.4451 29.5625 9.09509 29.2445C3.521 28.4925 12.1471 26.4204 12.1471 26.4204C12.1471 26.4204 8.79709 26.1924 4.68102 28.2045C-0.19306 30.5865 16.7292 31.6705 25.4854 29.3405Z" fill="#4E7D9D"/>
<path d="M6.37505 40.6007C3.157 40.6007 -3.58512 43.6687 2.37898 44.6487C6.96306 45.4007 11.3531 45.7068 15.3012 45.7068C16.0512 45.7068 16.7852 45.6968 17.5012 45.6748V44.4047C16.8452 44.4187 16.1872 44.4247 15.5332 44.4247C10.4711 44.4247 5.66704 44.0167 3.487 43.0567C1.79497 42.3107 4.97303 41.2767 5.96904 41.0607C6.72905 40.8947 7.25106 40.8707 7.47907 40.8707C7.56307 40.8707 7.60307 40.8747 7.60307 40.8747C7.33906 40.6847 6.90506 40.6007 6.37505 40.6007ZM6.31105 46.5708C6.31505 46.5708 7.41306 47.4848 13.0192 47.8488C14.4152 47.9388 15.9352 47.9928 17.4992 47.9988V47.2428C16.9792 47.2528 16.4612 47.2588 15.9472 47.2588C12.2871 47.2588 8.87709 46.9988 6.31105 46.5708ZM10.1371 31.8645C4.60302 33.7206 8.81109 35.7526 15.6352 35.7526C16.2392 35.7526 16.8612 35.7366 17.5012 35.7026V33.9406C16.9192 33.9706 16.3552 33.9846 15.8012 33.9846C14.2712 33.9846 12.8072 33.8786 11.2091 33.7126C8.10508 33.3885 10.1371 31.8645 10.1371 31.8645Z" fill="#446D89"/>
<path d="M17.5012 10.0942C15.4532 11.7482 13.2712 13.3022 11.9871 15.2543C9.7851 18.5983 13.0412 22.1904 17.5012 26.2684V26.1784C15.6732 22.2464 10.0011 18.7583 17.5012 12.7162V10.0942Z" fill="#D38118"/>
<path d="M11.2751 37.1206C6.16504 38.5646 10.3891 41.0867 16.5692 41.0867C16.8752 41.0867 17.1872 41.0807 17.5012 41.0667V38.7906C17.1512 38.8086 16.8032 38.8166 16.4552 38.8166C15.2792 38.8166 14.0692 38.7226 12.5651 38.5466C9.4611 38.1886 11.2751 37.1206 11.2751 37.1206ZM11.8211 26.4124C10.8851 26.4124 8.03708 26.5644 4.68102 28.2045C1.69897 29.6625 6.88306 30.6345 13.3612 30.6345C14.7072 30.6345 16.1072 30.5925 17.5032 30.5045V29.3265C16.0032 29.4045 14.5372 29.4465 13.2112 29.4465C11.5491 29.4465 10.1051 29.3825 9.09509 29.2445C3.519 28.4925 12.1471 26.4204 12.1471 26.4204C12.1471 26.4204 12.0331 26.4124 11.8211 26.4124Z" fill="#446D89"/>
<path d="M28.1954 9.80416C28.1954 9.80416 11.9491 13.9062 19.7073 22.9504C21.9973 25.6164 19.1053 28.0165 19.1053 28.0165C19.1053 28.0165 24.9174 24.9804 22.2473 21.1803C19.7573 17.6363 17.8452 15.8763 28.1954 9.80416Z" fill="#F2941B"/>
<path d="M20.9933 13.0202C17.9272 15.1763 15.8492 18.4523 19.7093 22.9504C21.9993 25.6164 19.1073 28.0165 19.1073 28.0165C19.1073 28.0165 20.0453 27.5265 20.9933 26.6944V19.3483C20.1973 18.0363 19.8993 16.8403 20.9933 15.2943V13.0202Z" fill="#D38118"/>
</svg>
