<svg width="48" height="48" viewBox="0 0 48 48" fill="none" xmlns="http://www.w3.org/2000/svg">
<g clip-path="url(#clip0_262_279)">
<path d="M0 0H48V48H0V0Z" fill="#F7DF1E"/>
<path d="M12.621 40.1123L16.2941 37.8893C17.0029 39.1457 17.6475 40.2088 19.1938 40.2088C20.676 40.2088 21.6107 39.6291 21.6107 37.3738V22.0367H26.1214V37.4376C26.1214 42.1095 23.3828 44.2361 19.3871 44.2361C15.7787 44.2361 13.6843 42.3677 12.621 40.1123ZM28.5714 39.6289L32.2442 37.5024C33.2111 39.0814 34.4678 40.2412 36.6908 40.2412C38.5599 40.2412 39.7517 39.3068 39.7517 38.0179C39.7517 36.4714 38.5273 35.9235 36.4652 35.0216L35.3377 34.5379C32.0833 33.1528 29.9246 31.4128 29.9246 27.7397C29.9246 24.3564 32.5022 21.7787 36.5299 21.7787C39.3975 21.7787 41.4596 22.7777 42.9416 25.3875L39.4294 27.6431C38.6559 26.2577 37.8186 25.71 36.5297 25.71C35.2086 25.71 34.3708 26.5477 34.3708 27.6431C34.3708 28.9963 35.2086 29.5444 37.1417 30.3821L38.2693 30.8653C42.1037 32.5088 44.2624 34.1841 44.2624 37.9536C44.2624 42.0137 41.0726 44.2367 36.7873 44.2367C32.5987 44.2367 29.8924 42.2389 28.5714 39.6289Z" fill="black"/>
</g>
<defs>
<clipPath id="clip0_262_279">
<rect width="48" height="48" fill="white"/>
</clipPath>
</defs>
</svg>
