<svg width="48" height="48" viewBox="0 0 48 48" fill="none" xmlns="http://www.w3.org/2000/svg">
<path d="M45.9947 0H22.8801C22.8801 2.76711 23.9793 5.42088 25.9359 7.37752C27.8926 9.33416 30.5463 10.4334 33.3135 10.4334H37.5726V14.5442C37.5742 17.3092 38.6733 19.9605 40.6285 21.9157C42.5837 23.8708 45.235 24.97 48 24.9715V2.00526C48 1.47343 47.7887 0.963388 47.4127 0.587329C47.0366 0.211269 46.5266 0 45.9947 0Z" fill="#2684FF"/>
<path d="M34.5567 11.5163H11.444C11.4456 14.2813 12.5447 16.9326 14.4999 18.8878C16.4551 20.8429 19.1064 21.942 21.8714 21.9436H26.1286V26.0685C26.1318 28.8335 27.2324 31.4842 29.1887 33.4382C31.145 35.3922 33.7969 36.4898 36.562 36.4898V13.5215C36.562 12.9897 36.3507 12.4796 35.9746 12.1036C35.5986 11.7275 35.0885 11.5163 34.5567 11.5163Z" fill="url(#paint0_linear_262_259)"/>
<path d="M23.1147 23.0264H1.9272e-07C-0.000263175 24.3967 0.269411 25.7537 0.79362 27.0197C1.31783 28.2858 2.0863 29.4362 3.05516 30.4053C4.02402 31.3743 5.17427 32.143 6.44024 32.6675C7.70621 33.1919 9.06308 33.4618 10.4334 33.4618H14.7046V37.5726C14.7062 40.3356 15.8036 42.9851 17.7562 44.9399C19.7088 46.8947 22.357 47.9952 25.1199 48V25.0317C25.1199 24.4999 24.9087 23.9898 24.5326 23.6138C24.1565 23.2377 23.6465 23.0264 23.1147 23.0264Z" fill="url(#paint1_linear_262_259)"/>
<defs>
<linearGradient id="paint0_linear_262_259" x1="37.3086" y1="-9.31556" x2="18.5229" y2="10.1748" gradientUnits="userSpaceOnUse">
<stop offset="0.18" stop-color="#0052CC"/>
<stop offset="1" stop-color="#2684FF"/>
</linearGradient>
<linearGradient id="paint1_linear_262_259" x1="731.578" y1="677.657" x2="311.728" y2="1093.16" gradientUnits="userSpaceOnUse">
<stop offset="0.18" stop-color="#0052CC"/>
<stop offset="1" stop-color="#2684FF"/>
</linearGradient>
</defs>
</svg>
