<svg width="24" height="24" viewBox="0 0 24 24" fill="none" xmlns="http://www.w3.org/2000/svg">
<path d="M3.23029 0.00178146C2.5914 0.00178146 1.96686 0.191235 1.43564 0.546183C0.90442 0.901132 0.490386 1.40563 0.245893 1.99589C0.00139963 2.58615 -0.0625709 3.23565 0.0620706 3.86227C0.186712 4.48888 0.494368 5.06447 0.946132 5.51623C1.3979 5.968 1.97348 6.27565 2.60009 6.40029C3.22671 6.52493 3.87621 6.46096 4.46647 6.21647C5.05673 5.97198 5.56123 5.55794 5.91618 5.02672C6.27113 4.49551 6.46058 3.87096 6.46058 3.23207C6.46058 2.37535 6.12025 1.55371 5.51445 0.947912C4.90865 0.342115 4.08702 0.00178146 3.23029 0.00178146ZM3.23029 4.61648C2.95648 4.61648 2.68882 4.53529 2.46115 4.38317C2.23349 4.23105 2.05605 4.01483 1.95126 3.76186C1.84648 3.50889 1.81906 3.23054 1.87248 2.96199C1.9259 2.69344 2.05775 2.44676 2.25137 2.25315C2.44498 2.05953 2.69166 1.92768 2.96021 1.87426C3.22876 1.82084 3.50711 1.84826 3.76008 1.95304C4.01305 2.05783 4.22926 2.23527 4.38139 2.46293C4.53351 2.6906 4.6147 2.95826 4.6147 3.23207C4.6147 3.59924 4.46884 3.95137 4.20922 4.211C3.94959 4.47062 3.59746 4.61648 3.23029 4.61648ZM5.53764 7.3853H0.922942C0.678163 7.3853 0.443409 7.48254 0.270324 7.65562C0.0972395 7.82871 1.51998e-06 8.06346 1.51998e-06 8.30824C1.51998e-06 8.55302 0.0972395 8.78777 0.270324 8.96086C0.443409 9.13394 0.678163 9.23118 0.922942 9.23118H4.6147V22.1523H1.84588V12C1.84588 11.7552 1.74864 11.5205 1.57556 11.3474C1.40247 11.1743 1.16772 11.0771 0.922942 11.0771C0.678163 11.0771 0.443409 11.1743 0.270324 11.3474C0.0972395 11.5205 1.51998e-06 11.7552 1.51998e-06 12V23.0753C1.51998e-06 23.3201 0.0972395 23.5548 0.270324 23.7279C0.443409 23.901 0.678163 23.9982 0.922942 23.9982H5.53764C5.78242 23.9982 6.01717 23.901 6.19026 23.7279C6.36334 23.5548 6.46058 23.3201 6.46058 23.0753V8.30824C6.46058 8.06346 6.36334 7.82871 6.19026 7.65562C6.01717 7.48254 5.78242 7.3853 5.53764 7.3853ZM22.4644 8.93584C21.9354 8.42107 21.308 8.0184 20.6198 7.75196C19.9315 7.48553 19.1965 7.36081 18.4588 7.3853H17.5359C16.2542 7.32698 14.9801 7.61047 13.8441 8.20672C13.819 7.97993 13.7108 7.77048 13.5404 7.61879C13.3699 7.4671 13.1493 7.38392 12.9212 7.3853H8.30646C8.06168 7.3853 7.82693 7.48254 7.65384 7.65562C7.48076 7.82871 7.38352 8.06346 7.38352 8.30824V23.0753C7.38352 23.3201 7.48076 23.5548 7.65384 23.7279C7.82693 23.901 8.06168 23.9982 8.30646 23.9982H12.9212C13.1659 23.9982 13.4007 23.901 13.5738 23.7279C13.7469 23.5548 13.8441 23.3201 13.8441 23.0753V14.7688C13.8441 14.2793 14.0386 13.8098 14.3847 13.4636C14.7309 13.1174 15.2004 12.9229 15.69 12.9229C16.1795 12.9229 16.649 13.1174 16.9952 13.4636C17.3414 13.8098 17.5359 14.2793 17.5359 14.7688V23.0753C17.5359 23.3201 17.6331 23.5548 17.8062 23.7279C17.9793 23.901 18.214 23.9982 18.4588 23.9982H23.0735C23.3183 23.9982 23.553 23.901 23.7261 23.7279C23.8992 23.5548 23.9964 23.3201 23.9964 23.0753V12.9229C24.023 12.1894 23.9009 11.4581 23.6376 10.7729C23.3744 10.0877 22.9753 9.46286 22.4644 8.93584ZM22.1506 22.1523H19.3817V14.7688C19.3817 13.7897 18.9928 12.8507 18.3004 12.1584C17.6081 11.466 16.6691 11.0771 15.69 11.0771C14.7109 11.0771 13.7719 11.466 13.0795 12.1584C12.3872 12.8507 11.9982 13.7897 11.9982 14.7688V22.1523H9.2294V9.23118H11.9982V10.1541C11.9991 10.3363 12.054 10.5142 12.1558 10.6653C12.2576 10.8164 12.4019 10.934 12.5704 11.0032C12.7385 11.0739 12.9238 11.0932 13.1028 11.0587C13.2818 11.0242 13.4467 10.9375 13.5764 10.8094C14.4532 9.88647 15.1454 9.23118 17.5359 9.23118H18.4588C18.9525 9.20997 19.4454 9.28809 19.9083 9.46089C20.3712 9.6337 20.7948 9.89768 21.1538 10.2372C21.4905 10.5959 21.7521 11.0182 21.9233 11.4794C22.0945 11.9407 22.1717 12.4314 22.1506 12.9229V22.1523Z" fill="black"/>
</svg>
