<svg width="30" height="24" viewBox="0 0 30 24" fill="none" xmlns="http://www.w3.org/2000/svg">
<path d="M25.7143 1.5291e-06L4.28571 0C3.14907 0 2.05898 0.451529 1.25526 1.25526C0.451529 2.05898 0 3.14907 0 4.28571V19.7143C0 20.8509 0.451529 21.941 1.25526 22.7447C2.05898 23.5485 3.14907 24 4.28571 24H23.1429C23.3702 24 23.5882 23.9097 23.749 23.749C23.9097 23.5882 24 23.3702 24 23.1429C24 22.9155 23.9097 22.6975 23.749 22.5368C23.5882 22.376 23.3702 22.2857 23.1429 22.2857H4.28571C3.60373 22.2857 2.94968 22.0148 2.46744 21.5326C1.9852 21.0503 1.71429 20.3963 1.71429 19.7143V4.28571C1.71429 3.60373 1.9852 2.94968 2.46744 2.46744C2.94968 1.9852 3.60373 1.71429 4.28571 1.71429H25.7143C26.3963 1.71429 27.0503 1.9852 27.5326 2.46744C28.0148 2.94968 28.2857 3.60373 28.2857 4.28571V19.7143C28.2857 20.3963 28.0148 21.0503 27.5326 21.5326C27.0503 22.0148 26.3963 22.2857 25.7143 22.2857H26.5714C26.3441 22.2857 26.1261 22.376 25.9653 22.5368C25.8046 22.6975 25.7143 22.9155 25.7143 23.1429C25.7143 23.3702 25.8046 23.5882 25.9653 23.749C26.1261 23.9097 26.3441 24 26.5714 24H25.7143C26.8509 24 27.941 23.5485 28.7447 22.7447C29.5485 21.941 30 20.8509 30 19.7143V4.28571C30 3.14907 29.5485 2.05899 28.7447 1.25526C27.941 0.451532 26.8509 1.5291e-06 25.7143 1.5291e-06Z" fill="black"/>
<path d="M2.57142 1.71428C2.24993 1.39279 2.69714 1.21218 2.24248 1.21218C1.78782 1.21218 1.35179 1.39279 1.0303 1.71428L2.14286 1.28572C1.82137 1.60721 1.2857 1.25963 1.2857 1.71428C1.2857 2.16894 1.46632 2.60497 1.78781 2.92646L13.9306 14.6834C14.2521 15.0049 14.6882 15.1855 15.1428 15.1855C15.5975 15.1855 16.0335 15.0049 16.355 14.6834L22.771 8.26742C23.0925 7.94593 23.2731 7.5099 23.2731 7.05524C23.2731 6.60059 21.8803 7.37673 21.5588 7.05524L2.57142 1.71428ZM2.99999 1.71428H2.57142L21.5588 7.05524L15.1428 13.4712L2.99999 1.71428Z" fill="black"/>
<path d="M8.63699 7.24112C8.3155 7.56261 6.92271 6.78646 6.92271 7.24112C6.92271 7.69577 7.10332 8.13181 7.42481 8.4533L13.9512 14.7505C14.2727 15.072 14.7087 15.2526 15.1634 15.2526C15.618 15.2526 16.0541 15.072 16.3756 14.7505L27.8572 3.28151C28.1786 2.96002 28.3593 2.52398 28.3593 2.06932C28.3593 1.61467 28.1786 1.17863 27.8572 0.857142L27.8697 0.869706C27.5482 0.548215 27.5147 0.735207 27.0735 1.22475C26.6324 1.71429 26.979 1.7604 26.6575 2.08189L8.63699 7.24112ZM15.1634 13.5383L8.63699 7.24112L26.6575 2.08189L26.645 2.06932L15.1634 13.5383Z" fill="black"/>
</svg>
