<svg width="22" height="48" viewBox="0 0 22 48" fill="none" xmlns="http://www.w3.org/2000/svg">
<g clip-path="url(#clip0_262_291)">
<path d="M11.8387 48L10.5607 47.564C10.5607 47.564 10.7167 41.05 8.37874 40.582C6.82074 38.774 8.62874 -36.094 14.2387 40.332C14.2387 40.332 12.3067 41.298 11.9627 42.95C11.5907 44.572 11.8387 48 11.8387 48Z" fill="white"/>
<path d="M11.8387 48L10.5607 47.564C10.5607 47.564 10.7167 41.05 8.37874 40.582C6.82074 38.774 8.62874 -36.094 14.2387 40.332C14.2387 40.332 12.3067 41.298 11.9627 42.95C11.5907 44.572 11.8387 48 11.8387 48Z" fill="#A6A385"/>
<path d="M12.5247 41.704C12.5247 41.704 23.7147 34.348 21.0967 19.044C18.5727 7.918 12.6187 4.27 11.9647 2.868C11.2487 1.87 10.5627 0.126 10.5627 0.126L11.0307 31.076C11.0287 31.106 10.0627 40.55 12.5247 41.704Z" fill="white"/>
<path d="M12.5247 41.704C12.5247 41.704 23.7147 34.348 21.0967 19.044C18.5727 7.918 12.6187 4.27 11.9647 2.868C11.2487 1.87 10.5627 0.126 10.5627 0.126L11.0307 31.076C11.0287 31.106 10.0627 40.55 12.5247 41.704Z" fill="#499D4A"/>
<path d="M9.90674 42.108C9.90674 42.108 -0.59726 34.94 0.0267404 22.316C0.61874 9.692 8.03674 3.49 9.47074 2.368C10.4067 1.372 10.4367 0.998 10.4987 0C11.1527 1.402 11.0287 20.976 11.1227 23.282C11.4027 32.166 10.6247 40.426 9.90674 42.108Z" fill="white"/>
<path d="M9.90674 42.108C9.90674 42.108 -0.59726 34.94 0.0267404 22.316C0.61874 9.692 8.03674 3.49 9.47074 2.368C10.4067 1.372 10.4367 0.998 10.4987 0C11.1527 1.402 11.0287 20.976 11.1227 23.282C11.4027 32.166 10.6247 40.426 9.90674 42.108Z" fill="#58AA50"/>
</g>
<defs>
<clipPath id="clip0_262_291">
<rect width="21.4937" height="48" fill="white"/>
</clipPath>
</defs>
</svg>
