<svg width="578" height="502" viewBox="0 0 578 502" fill="none" xmlns="http://www.w3.org/2000/svg">
<path d="M426.465 12.8513H151.535L14.0708 250.5L151.535 488.149L289 250.5L426.465 12.8513Z" fill="#2D51A8"/>
<path d="M563.929 250.5L426.465 12.8513L289 250.5L563.929 250.5Z" fill="#354593"/>
<path d="M426.465 488.149L563.929 250.5L289 250.5L151.535 488.149H426.465Z" fill="#496CB5"/>
<path fill-rule="evenodd" clip-rule="evenodd" d="M145.24 2H432.76L576.52 251L432.76 500H145.24L1.47957 251L145.24 2ZM151.535 12.8513H426.465L563.929 250.5L426.465 488.149H151.535L14.0708 250.5L151.535 12.8513Z" fill="white"/>
<path d="M227.36 331H196.212L184.42 288.5H130.514L119.396 331H89L141.559 171H175.66L227.36 331ZM175.66 265.863L157.421 194L138.824 265.863H175.66Z" fill="white"/>
<path d="M372.921 331V171H406.446L430.921 258.114L455.187 171H488.421V331H462.921L466.421 201.4L438.921 289.5H422.421L394.921 201.4L398.421 331H372.921Z" fill="white"/>
<path d="M295.172 335C284.55 335 273.927 333 263.305 329C252.848 324.833 243.554 318.917 235.421 311.25L255.089 287.75C260.898 293.083 267.371 297.333 274.508 300.5C281.811 303.667 288.948 305.25 295.919 305.25C304.052 305.25 310.11 303.75 314.093 300.75C318.242 297.583 320.317 293.25 320.317 287.75C320.317 284.083 319.321 281.083 317.33 278.75C315.338 276.417 312.516 274.417 308.865 272.75C305.379 270.917 301.23 269 296.417 267L275.006 257.75C269.363 255.417 264.052 252.333 259.072 248.5C254.093 244.667 250.027 239.917 246.873 234.25C243.72 228.417 242.143 221.583 242.143 213.75C242.143 204.75 244.55 196.667 249.363 189.5C254.342 182.333 261.064 176.667 269.529 172.5C278.159 168.167 287.952 166 298.906 166C308.367 166 317.579 167.833 326.541 171.5C335.67 175.167 343.637 180.333 350.442 187L333.014 208.75C327.869 204.583 322.558 201.333 317.081 199C311.603 196.667 305.545 195.5 298.906 195.5C292.267 195.5 286.873 196.917 282.724 199.75C278.74 202.583 276.749 206.583 276.749 211.75C276.749 215.25 277.828 218.167 279.985 220.5C282.143 222.833 285.13 224.917 288.948 226.75C292.931 228.417 297.247 230.25 301.894 232.25L322.807 240.75C329.446 243.417 335.172 246.75 339.985 250.75C344.799 254.75 348.533 259.583 351.189 265.25C354.01 270.75 355.421 277.333 355.421 285C355.421 294 353.014 302.333 348.201 310C343.554 317.5 336.666 323.583 327.537 328.25C318.574 332.75 307.786 335 295.172 335Z" fill="white"/>
</svg>
