<svg width="42" height="48" viewBox="0 0 42 48" fill="none" xmlns="http://www.w3.org/2000/svg">
<path d="M41.7138 12.1455L41.8302 12.0679C41.5974 11.6411 41.2482 11.253 40.8989 11.059L22.1568 0.271625C21.8464 0.0776071 21.4196 0 20.9539 0C20.4883 0 20.0614 0.116411 19.751 0.271625L1.1253 11.0978C0.465642 11.4859 0 12.4559 0 13.1932V34.8068C0 35.2336 0.077607 35.6993 0.349232 36.1261L0.271625 36.1649C0.465643 36.4753 0.737268 36.747 1.00889 36.9022L19.7122 47.7284C20.0226 47.9224 20.4495 48 20.9151 48C21.3808 48 21.8076 47.8836 22.118 47.7284L40.7437 36.9022C41.4034 36.5141 41.869 35.5441 41.869 34.8068V13.1544C41.9078 12.844 41.869 12.4947 41.7138 12.1455ZM20.9539 33.4875C24.485 33.4875 27.5893 31.5473 29.2191 28.6758L34.2247 31.6249C31.5861 36.2037 26.6192 39.308 20.9539 39.308C12.4947 39.308 5.62652 32.4398 5.62652 23.9806C5.62652 15.5214 12.4947 8.65319 20.9539 8.65319C26.658 8.65319 31.6249 11.7963 34.2635 16.4139L29.2191 19.3242C27.5893 16.4139 24.485 14.4737 20.9539 14.4737C15.7154 14.4737 11.447 18.7421 11.447 23.9806C11.447 29.2191 15.7154 33.4875 20.9539 33.4875Z" fill="#03599C"/>
</svg>
