<svg width="35" height="48" viewBox="0 0 35 48" fill="none" xmlns="http://www.w3.org/2000/svg">
<g clip-path="url(#clip0_262_293)">
<path d="M22.7577 17.3384L17.9578 21.8083L13.5018 12.8164L15.8038 7.6465C16.3858 6.61451 17.3378 6.60251 17.9198 7.6465L22.7577 17.3384Z" fill="#FFA000"/>
<path d="M17.9578 21.8063L0 38.5081L13.5018 12.8164L17.9578 21.8063Z" fill="#F57F17"/>
<path d="M28.0217 10.5025C28.8816 9.68247 29.7676 9.96047 29.9916 11.1225L34.6596 38.2821L19.1758 47.578C18.6318 47.882 17.1918 48 17.1918 48C17.1918 48 15.8818 47.84 15.3798 47.564L0 38.5081L28.0217 10.5025Z" fill="#FFCA28"/>
<path d="M13.5018 12.8164L0 38.5081L6.01793 0.95458C6.24392 -0.209405 6.90391 -0.327404 7.49791 0.702583L13.5018 12.8164Z" fill="#FFA000"/>
</g>
<defs>
<clipPath id="clip0_262_293">
<rect width="34.6596" height="48" fill="white"/>
</clipPath>
</defs>
</svg>
