<svg width="40" height="48" viewBox="0 0 40 48" fill="none" xmlns="http://www.w3.org/2000/svg">
<path d="M17.6563 11.1816C17.8163 11.1216 18.0363 11.1016 18.1764 11.1816C18.2164 11.2016 18.2564 11.2416 18.2364 11.2816V11.3216H18.2564C18.2164 11.4416 18.0163 11.4216 17.9163 11.4616C17.8163 11.5016 17.7363 11.6017 17.6363 11.6017C17.5363 11.6017 17.3763 11.5616 17.3562 11.4616C17.3362 11.3216 17.5363 11.1816 17.6563 11.1816ZM19.6966 11.4616C19.5966 11.4216 19.3965 11.4416 19.3765 11.3216V11.2816C19.3565 11.2416 19.3965 11.2016 19.4165 11.1816C19.5897 11.1115 19.7834 11.1115 19.9566 11.1816C20.0766 11.1816 20.2767 11.3216 20.2567 11.4616C20.2367 11.5616 20.0766 11.5817 19.9766 11.5817C19.8766 11.5817 19.7966 11.5016 19.6966 11.4616ZM16.1761 14.362C16.7762 14.7621 17.5563 15.3022 18.5364 15.3022C19.5166 15.3022 20.6767 14.7621 21.3768 14.362C21.7569 14.102 22.2769 13.702 22.677 13.4219C22.9971 13.1619 22.977 12.9018 23.2571 12.9018C23.5171 12.9218 23.3171 13.1619 22.957 13.5619C22.577 13.822 22.0169 14.222 21.5568 14.5021C20.6767 14.9021 19.6366 15.5622 18.5364 15.5622C17.4563 15.5622 16.5761 15.0221 15.956 14.6221C15.636 14.362 15.396 14.102 15.1959 13.962C14.8759 13.702 14.9159 13.3019 15.0559 13.3019C15.2759 13.3219 15.316 13.5619 15.456 13.702C15.656 13.822 15.896 14.102 16.1761 14.362Z" fill="#F9C105"/>
<path d="M20.2567 11.4616C20.2367 11.5616 20.0766 11.5817 19.9766 11.5817C19.8766 11.5817 19.7966 11.5016 19.6966 11.4616C19.5966 11.4216 19.3965 11.4416 19.3765 11.3216V11.2816C19.3565 11.2416 19.3965 11.2016 19.4165 11.1816C19.5897 11.1115 19.7834 11.1115 19.9566 11.1816C20.0766 11.1816 20.2767 11.3216 20.2567 11.4616Z" fill="black"/>
<path d="M29.2579 21.9631V23.8034H28.1578C29.1566 25.6245 29.8716 27.5874 30.2781 29.6242C30.5781 29.6042 30.9382 29.6642 31.3182 29.7442C31.4783 29.3242 31.5783 28.9041 31.6383 28.4841C32.0183 25.7037 30.2581 22.9833 29.2579 21.9631ZM29.2579 21.9631V23.8034H28.1578C29.1566 25.6245 29.8716 27.5874 30.2781 29.6242C30.5781 29.6042 30.9382 29.6642 31.3182 29.7442C31.4783 29.3242 31.5783 28.9041 31.6383 28.4841C32.0183 25.7037 30.2581 22.9833 29.2579 21.9631ZM38.5593 37.9054V37.7254L38.5393 37.7054C38.1992 37.3053 38.0392 36.6452 37.8592 35.8651C37.6991 35.065 37.4991 34.2849 36.859 33.7648C36.739 33.6648 36.619 33.6448 36.479 33.5048C36.365 33.4291 36.2348 33.3811 36.0989 33.3648C36.659 31.7245 36.719 30.0643 36.439 28.4841C36.2989 27.6239 36.0589 26.7838 35.7389 25.9837C34.6587 23.1633 32.7784 20.703 31.3382 19.0227C30.5981 18.0826 29.838 17.1424 29.2579 16.1423C28.5978 15.0021 28.1578 13.782 28.1778 12.2818C28.2178 9.50135 28.3978 5.16074 26.4375 2.46035C25.3974 1.00014 23.6972 0 21.0168 0C20.6967 0 20.3767 0.0200029 20.0366 0.0400057C17.4963 0.240034 15.916 1.16017 14.9359 2.46035C12.6356 5.50078 13.7157 10.5415 13.6357 12.6418C13.4757 14.8221 13.0356 16.5424 11.5154 18.6827C10.8953 19.4028 10.1752 20.2829 9.47512 21.283C8.13493 23.1633 6.79474 25.4036 6.01463 27.724C5.51456 29.2242 5.23452 30.7644 5.37454 32.2446L5.43455 32.7047C5.35454 32.7647 5.27453 32.8447 5.21452 32.9647C4.67444 33.5048 4.29439 34.1649 3.87433 34.6449C3.45427 35.045 2.89419 35.185 2.2541 35.4451C1.614 35.7251 0.913904 35.9851 0.513847 36.8052C0.313818 37.1853 0.233807 37.6054 0.233807 38.0054C0.233807 38.4055 0.293815 38.8255 0.353824 39.0856C0.473841 39.8857 0.593858 40.5458 0.433835 41.0258C-0.066236 42.386 -0.126245 43.3262 0.213804 44.0063C0.573855 44.6664 1.29396 44.9264 2.11407 45.2064C3.75431 45.6065 5.97462 45.4665 7.73488 46.4066C9.59514 47.3267 11.5154 47.7468 13.0156 47.3467C14.0958 47.1067 14.9959 46.4066 15.476 45.4465C15.576 45.4465 15.656 45.4465 15.756 45.4265C16.8762 45.3665 18.1164 44.9064 20.0366 44.7864C20.5767 44.7464 21.1568 44.8064 21.7969 44.8864C22.817 45.0464 23.9772 45.2665 25.2574 45.1864C25.2974 45.4465 25.3774 45.5665 25.4774 45.8465H25.4974C26.2775 47.4068 27.7377 48.1069 29.2979 47.9868C30.8582 47.8668 32.5184 46.9267 33.8786 45.3865C35.1388 43.8463 37.2791 43.2062 38.6793 42.366C39.3794 41.986 39.9595 41.4459 39.9995 40.6658C40.0395 39.8657 39.5994 39.0456 38.5593 37.9054ZM22.9971 9.28132C22.917 9.02129 22.797 8.88127 22.637 8.62123C22.457 8.48121 22.297 8.34119 22.0969 8.34119H22.0569C21.8769 8.34119 21.6969 8.4012 21.5368 8.62123C21.3368 8.80125 21.1968 9.02129 21.1168 9.28132C21.0168 9.54136 20.9568 9.8014 20.9368 10.0814V10.1214C20.9368 10.3015 20.9568 10.4815 20.9768 10.6615C20.5767 10.5215 20.0966 10.3815 19.7566 10.2415C19.7366 10.1214 19.7166 9.98142 19.7166 9.86141V9.8214C19.6966 9.28132 19.7966 8.76125 20.0166 8.28118C20.1766 7.84112 20.4767 7.46106 20.8767 7.20103C21.2368 6.94099 21.6569 6.80097 22.0769 6.80097H22.1169C22.537 6.80097 22.917 6.94099 23.2971 7.20103C23.6771 7.48107 23.9572 7.86112 24.1772 8.28118C24.3973 8.78125 24.4973 9.18131 24.5173 9.72139C24.5173 9.68138 24.5373 9.64137 24.5373 9.60137V9.8014C24.5173 9.8014 24.5173 9.78139 24.5173 9.76139C24.5173 10.2215 24.3972 10.7015 24.2172 11.1416C24.1172 11.3816 23.9772 11.6217 23.7772 11.8017C23.7172 11.7617 23.6571 11.7417 23.5971 11.7217C23.3971 11.6217 23.1971 11.5817 23.0171 11.4616C22.8778 11.3941 22.7296 11.347 22.577 11.3216C22.677 11.2016 22.877 11.0616 22.957 10.9216C23.0571 10.6615 23.1171 10.4015 23.1371 10.1214V10.0814C23.1371 9.8214 23.0971 9.54136 22.9971 9.28132ZM14.6759 8.4012C14.7759 8.00114 14.9759 7.64109 15.2559 7.32104C15.516 7.06101 15.776 6.92099 16.0961 6.92099H16.1561C16.4522 6.92526 16.7393 7.0233 16.9762 7.20103C17.2762 7.46106 17.5163 7.78111 17.6763 8.12116C17.8563 8.52121 17.9563 8.92127 17.9763 9.46135C17.9963 9.60137 17.9963 9.70138 17.9963 9.8014C17.9963 9.88141 17.9963 9.94142 17.9763 10.0014V10.1614C17.925 10.1819 17.8712 10.1953 17.8163 10.2015C17.4963 10.3215 17.2562 10.4815 17.0162 10.6015C17.0362 10.4415 17.0362 10.2615 17.0162 10.0814V10.0414C16.9962 9.78139 16.9362 9.64137 16.8562 9.38134C16.7895 9.17586 16.6726 8.99024 16.5161 8.84126C16.464 8.79687 16.4035 8.76337 16.3383 8.74276C16.273 8.72215 16.2042 8.71483 16.1361 8.72124H16.0961C15.956 8.72124 15.836 8.80125 15.736 8.98128C15.596 9.1413 15.516 9.32133 15.476 9.52136C15.436 9.74139 15.416 9.96142 15.436 10.1815V10.2215C15.456 10.4815 15.516 10.6215 15.596 10.8816C15.696 11.1416 15.796 11.2816 15.936 11.4216C15.956 11.4416 15.9761 11.4616 15.9961 11.4616C15.856 11.5817 15.776 11.6017 15.656 11.7417C15.5737 11.8078 15.4782 11.8555 15.376 11.8817C15.1759 11.6217 14.9959 11.3616 14.8359 11.0616C14.6359 10.6415 14.5358 10.2015 14.5158 9.74139C14.4758 9.28132 14.5358 8.82126 14.6759 8.4012ZM14.8959 12.6218C15.336 12.3418 15.656 12.0617 15.876 11.9417C16.0761 11.8017 16.1561 11.7417 16.2161 11.6817H16.2361C16.5761 11.2616 17.1162 10.7415 17.9163 10.4615C18.1964 10.4015 18.5164 10.3415 18.8765 10.3415C19.5366 10.3415 20.3567 10.4615 21.3168 11.1416C21.9169 11.5416 22.377 11.6817 23.4571 12.0817C23.9772 12.3418 24.2772 12.6018 24.4373 12.8818V12.6018C24.5773 12.9018 24.5773 13.2419 24.4573 13.5419C24.2172 14.182 23.4171 14.8421 22.317 15.2422C21.7569 15.5022 21.2968 15.9023 20.7367 16.1623C20.1766 16.4423 19.5566 16.7624 18.6964 16.7024C18.3895 16.7278 18.081 16.6798 17.7963 16.5624C17.5563 16.4423 17.3362 16.3223 17.1362 16.1823C16.7362 15.9023 16.3961 15.5022 15.896 15.2422C15.0759 14.7421 14.6359 14.202 14.4958 13.822C14.3558 13.2819 14.4958 12.8818 14.8959 12.6218ZM15.2159 43.9463C15.0959 45.4265 14.2358 46.2266 12.9356 46.5266C11.6154 46.7867 9.85518 46.5266 8.07492 45.6065C6.13465 44.5263 3.79431 44.6664 2.3141 44.3863C1.554 44.2663 1.07393 43.9863 0.833892 43.5862C0.613861 43.1862 0.613861 42.386 1.09393 41.1259C1.33396 40.4458 1.15394 39.6056 1.03392 38.8855C0.933906 38.0854 0.873898 37.4653 1.13393 37.0053C1.45398 36.3252 1.93405 36.2052 2.51413 35.9251C3.11422 35.6651 3.81432 35.5251 4.3744 35.005V34.985C4.89447 34.4449 5.27453 33.7848 5.73459 33.3047C6.11464 32.9047 6.4947 32.6447 7.07478 32.6447H7.09479C7.1948 32.6447 7.29481 32.6447 7.41483 32.6647C8.17494 32.7847 8.83503 33.3448 9.47512 34.1649L11.3154 37.5053H11.3354C11.8155 38.5655 12.8556 39.6457 13.7357 40.7858C14.6159 41.986 15.296 43.0461 15.2159 43.9263V43.9463ZM21.7969 42.6661C19.8166 43.1261 17.7163 42.9861 15.756 41.906C15.516 41.786 15.276 41.6459 15.0559 41.4859C14.8359 41.1059 14.5558 40.7458 14.2358 40.4258C14.0886 40.1751 13.8991 39.9517 13.6757 39.7657C14.0558 39.7657 14.3758 39.7057 14.6359 39.6256C14.9159 39.4856 15.1559 39.2456 15.2559 38.9656C15.476 38.4255 15.2559 37.5654 14.5558 36.6252C13.8557 35.7051 12.6756 34.6449 10.9553 33.5848C10.2952 33.1647 9.79517 32.7247 9.41512 32.2446C9.03506 31.7845 8.77502 31.3045 8.615 30.8044C8.29496 29.7242 8.33496 28.6241 8.595 27.5039C8.89504 26.1837 9.49513 24.9035 10.0752 23.8034C10.4753 23.1033 10.8553 22.4832 11.1754 21.9831C11.3754 21.8431 11.2354 22.2232 10.3953 23.8034L10.3352 23.9234C9.53513 25.4236 8.03492 28.9241 10.0952 31.6445C10.1752 29.6642 10.6153 27.7039 11.3954 25.8837C11.6554 25.2836 11.9955 24.5835 12.3555 23.8034C13.5357 21.303 14.9759 18.0626 15.1159 15.3422C15.2159 15.4222 15.556 15.6222 15.696 15.7422C16.1361 16.0223 16.4761 16.4223 16.8962 16.6824C17.3162 17.0824 17.8563 17.3425 18.6764 17.3425C18.7564 17.3625 18.8165 17.3625 18.8965 17.3625C19.7166 17.3625 20.3767 17.1024 20.9168 16.8224C21.4968 16.5624 21.9569 16.1623 22.397 16.0223H22.417C23.3571 15.7622 24.0972 15.2222 24.5373 14.6221C25.2574 17.4625 26.9576 21.5831 28.0378 23.5834C29.0997 25.4657 29.8559 27.5047 30.2781 29.6242C30.5781 29.6042 30.9382 29.6642 31.3182 29.7442C31.4783 29.3242 31.5783 28.9041 31.6383 28.4841C32.0183 25.7037 30.2581 22.9833 29.2579 21.9631C29.1979 21.9231 29.1379 21.8631 29.0979 21.8231C28.6579 21.4231 28.6379 21.143 28.8579 21.143C28.9979 21.263 29.1179 21.383 29.2579 21.5231C30.3781 22.6832 31.6783 24.5435 32.1784 26.6638C32.3384 27.2439 32.4184 27.864 32.4184 28.4841C32.4184 28.9841 32.3584 29.5042 32.2384 30.0043C32.3584 30.0643 32.4984 30.1243 32.6384 30.1443C34.7387 31.2044 35.4988 32.0046 35.1388 33.2047V33.1247H34.7387C35.0388 32.1846 34.3787 31.4645 32.5784 30.6844C30.7382 29.8843 29.2579 30.0043 28.9979 31.6045C28.9779 31.6845 28.9779 31.7445 28.9579 31.8845C28.8179 31.9246 28.6779 31.9846 28.5378 32.0046C27.6777 32.5446 27.1977 33.3448 26.9376 34.3849C26.6776 35.4451 26.5976 36.6852 26.5176 38.1254C26.4775 38.7855 26.1775 39.8057 25.8775 40.8258C24.6573 41.6859 23.2771 42.346 21.7969 42.6661ZM38.3992 41.6459C37.1391 42.4461 34.8787 43.0661 33.4385 44.7864C32.1784 46.2666 30.6581 47.0667 29.318 47.1667C27.9778 47.2667 26.8176 46.7667 26.1375 45.3665H26.1175C25.6974 44.5664 25.8775 43.3062 26.2375 41.986C26.5976 40.6458 27.0976 39.2856 27.1776 38.1854C27.2377 36.7652 27.3177 35.5251 27.5577 34.5649C27.8177 33.6248 28.1978 32.9647 28.8579 32.5846L28.9579 32.5446C29.0179 33.7448 29.638 35.025 30.7382 35.305C31.9183 35.5651 33.6386 34.6249 34.3587 33.7648L34.7787 33.7448C35.4188 33.7248 35.9589 33.7648 36.499 34.2849C36.919 34.6849 37.1191 35.345 37.2991 36.0451C37.4791 36.8453 37.6191 37.6054 38.1192 38.1654C39.1193 39.2256 39.4394 39.9857 39.4194 40.4458C39.3794 40.9858 39.0393 41.2459 38.3992 41.6459ZM29.2579 21.9631V23.8034H28.1578C29.1566 25.6245 29.8716 27.5874 30.2781 29.6242C30.5781 29.6042 30.9382 29.6642 31.3182 29.7442C31.4783 29.3242 31.5783 28.9041 31.6383 28.4841C32.0183 25.7037 30.2581 22.9833 29.2579 21.9631Z" fill="black"/>
<path d="M24.4373 12.6018V12.8818C24.2772 12.6018 23.9772 12.3418 23.4571 12.0817C22.377 11.6817 21.9169 11.5416 21.3168 11.1416C20.3567 10.4615 19.5366 10.3415 18.8765 10.3415C18.5164 10.3415 18.1964 10.4015 17.9163 10.4615C17.1162 10.7415 16.5761 11.2616 16.2361 11.6817H16.2161C16.1561 11.7417 16.0761 11.8017 15.876 11.9417C15.656 12.0617 15.336 12.3418 14.8959 12.6218C14.4958 12.8818 14.3558 13.2819 14.4958 13.822C14.6359 14.202 15.0759 14.7421 15.896 15.2422C16.3961 15.5022 16.7362 15.9023 17.1362 16.1823C17.3362 16.3223 17.5563 16.4423 17.7963 16.5624C18.0763 16.6824 18.3764 16.7224 18.6964 16.7024C19.5566 16.7624 20.1766 16.4423 20.7367 16.1623C21.2968 15.9023 21.7569 15.5022 22.317 15.2422C23.4171 14.8421 24.2172 14.182 24.4573 13.5419C24.5773 13.2419 24.5773 12.9018 24.4373 12.6018ZM19.3765 11.2816C19.3565 11.2416 19.3965 11.2016 19.4165 11.1816C19.5897 11.1115 19.7834 11.1115 19.9566 11.1816C20.0766 11.1816 20.2767 11.3216 20.2567 11.4616C20.2367 11.5616 20.0766 11.5817 19.9766 11.5817C19.8766 11.5817 19.7966 11.5016 19.6966 11.4616C19.5966 11.4216 19.3965 11.4416 19.3765 11.3216V11.2816ZM17.6563 11.1816C17.8163 11.1216 18.0363 11.1016 18.1764 11.1816C18.2164 11.2016 18.2564 11.2416 18.2364 11.2816V11.3216H18.2564C18.2164 11.4416 18.0163 11.4216 17.9163 11.4616C17.8163 11.5016 17.7363 11.6017 17.6363 11.6017C17.5363 11.6017 17.3763 11.5616 17.3562 11.4616C17.3362 11.3216 17.5363 11.1816 17.6563 11.1816ZM22.957 13.5619C22.577 13.822 22.0169 14.222 21.5568 14.5021C20.6767 14.9021 19.6366 15.5622 18.5364 15.5622C17.4563 15.5622 16.5761 15.0221 15.956 14.6221C15.636 14.362 15.396 14.102 15.1959 13.962C14.8759 13.702 14.9159 13.3019 15.0559 13.3019C15.2759 13.3219 15.316 13.5619 15.456 13.702C15.656 13.822 15.896 14.102 16.1761 14.362C16.7762 14.7621 17.5563 15.3022 18.5364 15.3022C19.5166 15.3022 20.6767 14.7621 21.3768 14.362C21.7569 14.102 22.2769 13.702 22.677 13.4219C22.9971 13.1619 22.977 12.9018 23.2571 12.9018C23.5171 12.9218 23.3171 13.1619 22.957 13.5619ZM39.4194 40.4458C39.3794 40.9858 39.0393 41.2459 38.3992 41.6459C37.1391 42.4461 34.8787 43.0661 33.4385 44.7864C32.1784 46.2666 30.6581 47.0667 29.318 47.1667C27.9778 47.2667 26.8176 46.7667 26.1375 45.3665H26.1175C25.6974 44.5664 25.8775 43.3062 26.2375 41.986C26.5976 40.6458 27.0976 39.2856 27.1776 38.1854C27.2377 36.7652 27.3177 35.5251 27.5577 34.5649C27.8177 33.6248 28.1978 32.9647 28.8579 32.5846L28.9579 32.5446C29.0179 33.7448 29.638 35.025 30.7382 35.305C31.9183 35.5651 33.6386 34.6249 34.3587 33.7648L34.7787 33.7448C35.4188 33.7248 35.9589 33.7648 36.499 34.2849C36.919 34.6849 37.1191 35.345 37.2991 36.0451C37.4791 36.8453 37.6191 37.6054 38.1192 38.1654C39.1193 39.2256 39.4394 39.9857 39.4194 40.4458ZM15.2159 43.9263V43.9463C15.0959 45.4265 14.2358 46.2266 12.9356 46.5266C11.6154 46.7867 9.85518 46.5266 8.07492 45.6065C6.13465 44.5263 3.79431 44.6664 2.3141 44.3863C1.554 44.2663 1.07393 43.9863 0.833892 43.5862C0.613861 43.1862 0.613861 42.386 1.09393 41.1259C1.33396 40.4458 1.15394 39.6056 1.03392 38.8855C0.933906 38.0854 0.873898 37.4653 1.13393 37.0053C1.45398 36.3252 1.93405 36.2052 2.51413 35.9251C3.11422 35.6651 3.81432 35.5251 4.3744 35.005V34.985C4.89447 34.4449 5.27453 33.7848 5.73459 33.3047C6.11464 32.9047 6.4947 32.6447 7.07478 32.6447H7.09479C7.1948 32.6447 7.29481 32.6447 7.41483 32.6647C8.17494 32.7847 8.83503 33.3448 9.47512 34.1649L11.3154 37.5053H11.3354C11.8155 38.5655 12.8556 39.6457 13.7357 40.7858C14.6159 41.986 15.296 43.0461 15.2159 43.9263Z" fill="#F9C105"/>
<path d="M18.2564 11.3216C18.2164 11.4416 18.0163 11.4216 17.9163 11.4616C17.8163 11.5016 17.7363 11.6017 17.6363 11.6017C17.5363 11.6017 17.3763 11.5616 17.3562 11.4616C17.3362 11.3216 17.5363 11.1816 17.6563 11.1816C17.8163 11.1216 18.0363 11.1016 18.1764 11.1816C18.2164 11.2016 18.2564 11.2416 18.2364 11.2816V11.3216H18.2564ZM22.957 13.5619C22.577 13.822 22.0169 14.222 21.5568 14.5021C20.6767 14.9021 19.6366 15.5622 18.5364 15.5622C17.4563 15.5622 16.5761 15.0221 15.956 14.6221C15.636 14.362 15.396 14.102 15.1959 13.962C14.8759 13.702 14.9159 13.3019 15.0559 13.3019C15.2759 13.3219 15.316 13.5619 15.456 13.702C15.656 13.822 15.896 14.102 16.1761 14.362C16.7762 14.7621 17.5563 15.3022 18.5364 15.3022C19.5166 15.3022 20.6767 14.7621 21.3768 14.362C21.7569 14.102 22.2769 13.702 22.677 13.4219C22.9971 13.1619 22.977 12.9018 23.2571 12.9018C23.5171 12.9218 23.3171 13.1619 22.957 13.5619Z" fill="black"/>
</svg>
