<svg width="49" height="48" viewBox="0 0 49 48" fill="none" xmlns="http://www.w3.org/2000/svg">
<path d="M23.9516 0C11.7025 0 12.4673 5.31194 12.4673 5.31194L12.4809 10.8153H24.17V12.4675H7.83821C7.83821 12.4675 0 11.5786 0 23.9378C0 36.2975 6.84138 35.8591 6.84138 35.8591H10.9243V30.1238C10.9243 30.1238 10.7042 23.2824 17.6565 23.2824H29.25C29.25 23.2824 35.7635 23.3877 35.7635 16.9873V6.40456C35.7635 6.40456 36.7528 0 23.9516 0ZM17.5063 3.70088C17.7825 3.70063 18.056 3.75486 18.3113 3.86045C18.5665 3.96604 18.7984 4.12092 18.9938 4.31624C19.1891 4.51156 19.344 4.74348 19.4496 4.99872C19.5551 5.25396 19.6094 5.52752 19.6091 5.80374C19.6094 6.07996 19.5551 6.35352 19.4496 6.60877C19.344 6.86401 19.1891 7.09593 18.9938 7.29124C18.7984 7.48656 18.5665 7.64145 18.3113 7.74704C18.056 7.85263 17.7825 7.90685 17.5063 7.9066C17.23 7.90685 16.9565 7.85263 16.7012 7.74704C16.446 7.64145 16.2141 7.48656 16.0188 7.29124C15.8234 7.09593 15.6686 6.86401 15.563 6.60877C15.4574 6.35352 15.4032 6.07996 15.4034 5.80374C15.4032 5.52752 15.4574 5.25396 15.563 4.99872C15.6686 4.74348 15.8234 4.51156 16.0188 4.31624C16.2141 4.12092 16.446 3.96604 16.7012 3.86045C16.9565 3.75486 17.23 3.70063 17.5063 3.70088Z" fill="url(#paint0_linear_262_277)"/>
<path d="M24.2995 48C36.5486 48 35.7838 42.6881 35.7838 42.6881L35.7702 37.1849H24.0809V35.5327H40.4127C40.4127 35.5327 48.2509 36.4216 48.2509 24.062C48.2509 11.7025 41.4095 12.1409 41.4095 12.1409H37.3266V17.876C37.3266 17.876 37.5467 24.7174 30.5944 24.7174H19.0009C19.0009 24.7174 12.4874 24.6122 12.4874 31.0127V41.5956C12.4874 41.5956 11.4983 48 24.2993 48H24.2995ZM30.7448 44.2995C30.4686 44.2997 30.1951 44.2455 29.9398 44.1399C29.6846 44.0343 29.4527 43.8795 29.2573 43.6841C29.062 43.4888 28.9071 43.2569 28.8015 43.0017C28.6959 42.7464 28.6417 42.4729 28.642 42.1966C28.6417 41.9204 28.6959 41.6468 28.8015 41.3915C28.9071 41.1363 29.0619 40.9044 29.2573 40.709C29.4526 40.5137 29.6845 40.3588 29.9398 40.2532C30.195 40.1476 30.4686 40.0933 30.7448 40.0936C31.0211 40.0933 31.2946 40.1476 31.5499 40.2532C31.8051 40.3587 32.037 40.5136 32.2323 40.7089C32.4277 40.9043 32.5825 41.1362 32.6881 41.3914C32.7937 41.6467 32.8479 41.9202 32.8477 42.1964C32.8479 42.4727 32.7937 42.7462 32.6881 43.0015C32.5825 43.2567 32.4277 43.4886 32.2323 43.6839C32.037 43.8793 31.8051 44.0341 31.5499 44.1397C31.2946 44.2453 31.0211 44.2997 30.7448 44.2995Z" fill="url(#paint1_linear_262_277)"/>
<defs>
<linearGradient id="paint0_linear_262_277" x1="625.284" y1="577.872" x2="3826.01" y2="3770.33" gradientUnits="userSpaceOnUse">
<stop stop-color="#387EB8"/>
<stop offset="1" stop-color="#366994"/>
</linearGradient>
<linearGradient id="paint1_linear_262_277" x1="696.894" y1="750.124" x2="3264.73" y2="3177.59" gradientUnits="userSpaceOnUse">
<stop stop-color="#FFE052"/>
<stop offset="1" stop-color="#FFC331"/>
</linearGradient>
</defs>
</svg>
