<svg width="54" height="48" viewBox="0 0 54 48" fill="none" xmlns="http://www.w3.org/2000/svg">
<path d="M26.8766 28.8945C29.5797 28.8945 31.771 26.7031 31.771 24C31.771 21.2969 29.5797 19.1055 26.8766 19.1055C24.1734 19.1055 21.9821 21.2969 21.9821 24C21.9821 26.7031 24.1734 28.8945 26.8766 28.8945Z" fill="#61DAFB"/>
<path d="M45.4669 15.9284C44.5224 15.585 43.5349 15.2415 42.5045 14.941C42.7621 13.9106 42.9767 12.8801 43.1485 11.8927C44.0501 6.2254 43.0626 2.23256 40.3148 0.686941C39.4991 0.214669 38.5975 0 37.5671 0C34.5617 0 30.7406 2.23256 26.8766 5.9678C23.0125 2.23256 19.1914 0 16.186 0C15.1556 0 14.254 0.214669 13.4383 0.686941C10.6905 2.27549 9.70304 6.26834 10.6047 11.8927C10.7764 12.8801 10.9911 13.9106 11.2487 14.941C10.2182 15.2415 9.23077 15.542 8.28623 15.9284C2.9195 17.9893 0 20.8229 0 24C0 27.1771 2.96243 30.0107 8.28623 32.0716C9.23077 32.415 10.2182 32.7585 11.2487 33.059C10.9911 34.0894 10.7764 35.1199 10.6047 36.1073C9.70304 41.7746 10.6905 45.7674 13.4383 47.3131C14.254 47.7853 15.1556 48 16.186 48C19.2343 48 23.0555 45.7674 26.8766 42.0322C30.7406 45.7674 34.5617 48 37.5671 48C38.5975 48 39.4991 47.7853 40.3148 47.3131C43.0626 45.7245 44.0501 41.7317 43.1485 36.1073C42.9767 35.1199 42.7621 34.0894 42.5045 33.059C43.5349 32.7585 44.5224 32.458 45.4669 32.0716C50.8336 30.0107 53.7531 27.1771 53.7531 24C53.7531 20.8229 50.8336 17.9893 45.4669 15.9284ZM39.1127 2.83363C40.873 3.86404 41.4741 7.04114 40.7442 11.5492C40.6154 12.4508 40.4007 13.3953 40.1431 14.3828C37.9106 13.8676 35.5492 13.5241 33.059 13.3095C31.5993 11.2487 30.0966 9.4025 28.5939 7.72809C31.771 4.59392 34.9911 2.44723 37.61 2.44723C38.1682 2.44723 38.6834 2.57603 39.1127 2.83363ZM34.3041 28.2934C33.5313 29.6673 32.6297 31.0411 31.6852 32.415C30.0966 32.5438 28.508 32.5868 26.8766 32.5868C25.2021 32.5868 23.6136 32.5438 22.068 32.415C21.1234 31.0411 20.2648 29.6673 19.4919 28.2934C18.6762 26.8766 17.9034 25.4168 17.2165 24C17.9034 22.5832 18.6762 21.1234 19.4919 19.7066C20.2648 18.3327 21.1664 16.9589 22.1109 15.585C23.6995 15.4562 25.288 15.4132 26.9195 15.4132C28.5939 15.4132 30.1825 15.4562 31.7281 15.585C32.6726 16.9589 33.5313 18.3327 34.3041 19.7066C35.1199 21.1234 35.8927 22.5832 36.5796 24C35.8497 25.4168 35.1199 26.8336 34.3041 28.2934ZM37.8676 26.8766C38.5116 28.3792 39.0268 29.839 39.4991 31.2987C38.0394 31.6422 36.4937 31.8998 34.8623 32.1145C35.3775 31.2987 35.9356 30.4401 36.4079 29.5385C36.9231 28.6369 37.3953 27.7352 37.8676 26.8766ZM26.8766 38.5116C25.8462 37.3954 24.8587 36.1932 23.9141 34.9481C24.9016 34.9911 25.8891 35.034 26.8766 35.034C27.864 35.034 28.8515 34.9911 29.839 34.9481C28.8945 36.1932 27.907 37.3954 26.8766 38.5116ZM18.8909 32.0716C17.2594 31.8569 15.7138 31.5993 14.254 31.2558C14.7263 29.839 15.2415 28.3363 15.8855 26.8336C16.3578 27.6923 16.8301 28.5939 17.3453 29.4526C17.8605 30.3971 18.3757 31.2129 18.8909 32.0716ZM15.8855 21.1234C15.2415 19.6208 14.7263 18.161 14.254 16.7013C15.7138 16.3578 17.2594 16.1002 18.8909 15.8855C18.3757 16.7013 17.8175 17.5599 17.3453 18.4615C16.8301 19.3631 16.3578 20.2648 15.8855 21.1234ZM26.8766 9.48837C27.907 10.6047 28.8945 11.8068 29.839 13.0519C28.8515 13.0089 27.864 12.966 26.8766 12.966C25.8891 12.966 24.9016 13.0089 23.9141 13.0519C24.8587 11.8068 25.8462 10.6047 26.8766 9.48837ZM36.4079 18.5045L34.8623 15.9284C36.4937 16.1431 38.0394 16.4007 39.4991 16.7442C39.0268 18.161 38.5116 19.6637 37.8676 21.1664C37.3953 20.2648 36.9231 19.3631 36.4079 18.5045ZM13.0089 11.5492C12.2791 7.04114 12.8801 3.86404 14.6404 2.83363C15.0698 2.57603 15.585 2.44723 16.1431 2.44723C18.7191 2.44723 21.9392 4.55098 25.1592 7.72809C23.6565 9.35957 22.1538 11.2487 20.6941 13.3095C18.2039 13.5241 15.8426 13.9106 13.61 14.3828C13.3524 13.3953 13.1807 12.4508 13.0089 11.5492ZM2.40429 24C2.40429 21.9821 4.85152 19.8354 9.1449 18.2469C10.0036 17.9034 10.9481 17.6029 11.8927 17.3453C12.5796 19.492 13.4383 21.7674 14.4687 24.0429C13.4383 26.3184 12.5367 28.551 11.8927 30.6977C5.9678 28.9803 2.40429 26.4043 2.40429 24ZM14.6404 45.1664C12.8801 44.136 12.2791 40.9589 13.0089 36.4508C13.1377 35.5492 13.3524 34.6047 13.61 33.6172C15.8426 34.1324 18.2039 34.4758 20.6941 34.6905C22.1538 36.7513 23.6565 38.5975 25.1592 40.2719C21.9821 43.4061 18.7621 45.5528 16.1431 45.5528C15.585 45.5528 15.0698 45.424 14.6404 45.1664ZM40.7442 36.4508C41.4741 40.9589 40.873 44.136 39.1127 45.1664C38.6834 45.424 38.1682 45.5528 37.61 45.5528C35.034 45.5528 31.814 43.449 28.5939 40.2719C30.0966 38.6404 31.5993 36.7513 33.059 34.6905C35.5492 34.4758 37.9106 34.0894 40.1431 33.6172C40.4007 34.6047 40.5725 35.5492 40.7442 36.4508ZM44.6082 29.7531C43.7496 30.0966 42.805 30.3971 41.8605 30.6547C41.1735 28.5081 40.3148 26.2326 39.2844 23.9571C40.3148 21.6816 41.2165 19.449 41.8605 17.3023C47.7853 19.0197 51.3488 21.5957 51.3488 24C51.3488 26.0179 48.8587 28.1646 44.6082 29.7531Z" fill="#61DAFB"/>
</svg>
